<svg width="51" height="51" viewBox="0 0 51 51" fill="none" xmlns="http://www.w3.org/2000/svg">
<g clip-path="url(#clip0_1918_9087)">
<path d="M47.4982 2.78906L28.7632 16.7041L32.2282 8.49406L47.4982 2.78906Z" fill="#E2761B" stroke="#E2761B" stroke-linecap="round" stroke-linejoin="round"/>
<path d="M4.24316 2.78906L22.8282 16.8341L19.5332 8.49406L4.24316 2.78906Z" fill="#E4761B" stroke="#E4761B" stroke-linecap="round" stroke-linejoin="round"/>
<path d="M40.7581 35.0491L35.7681 42.6941L46.4431 45.6291L49.5131 35.2141L40.7581 35.0491Z" fill="#E4761B" stroke="#E4761B" stroke-linecap="round" stroke-linejoin="round"/>
<path d="M2.26318 35.2141L5.31318 45.6291L15.9932 42.6941L11.0032 35.0491L2.26318 35.2141Z" fill="#E4761B" stroke="#E4761B" stroke-linecap="round" stroke-linejoin="round"/>
<path d="M15.3881 22.1291L12.4131 26.6291L23.0181 27.0991L22.6381 15.7041L15.3881 22.1291Z" fill="#E4761B" stroke="#E4761B" stroke-linecap="round" stroke-linejoin="round"/>
<path d="M36.3482 22.129L29.0082 15.574L28.7632 27.099L39.3432 26.629L36.3482 22.129Z" fill="#E4761B" stroke="#E4761B" stroke-linecap="round" stroke-linejoin="round"/>
<path d="M15.9932 42.6941L22.3582 39.5841L16.8582 35.2891L15.9932 42.6941Z" fill="#E4761B" stroke="#E4761B" stroke-linecap="round" stroke-linejoin="round"/>
<path d="M29.3833 39.5841L35.7683 42.6941L34.8833 35.2891L29.3833 39.5841Z" fill="#E4761B" stroke="#E4761B" stroke-linecap="round" stroke-linejoin="round"/>
<path d="M35.7683 42.694L29.3833 39.584L29.8933 43.749L29.8333 45.499L35.7683 42.694Z" fill="#D7C1B3" stroke="#D7C1B3" stroke-linecap="round" stroke-linejoin="round"/>
<path d="M15.9932 42.694L21.9232 45.499L21.8882 43.749L22.3582 39.584L15.9932 42.694Z" fill="#D7C1B3" stroke="#D7C1B3" stroke-linecap="round" stroke-linejoin="round"/>
<path d="M22.018 32.5442L16.708 30.9792L20.458 29.2642L22.018 32.5442Z" fill="#233447" stroke="#233447" stroke-linecap="round" stroke-linejoin="round"/>
<path d="M29.7231 32.5442L31.2831 29.2642L35.0531 30.9792L29.7231 32.5442Z" fill="#233447" stroke="#233447" stroke-linecap="round" stroke-linejoin="round"/>
<path d="M15.9929 42.6941L16.8979 35.0491L11.0029 35.2141L15.9929 42.6941Z" fill="#CD6116" stroke="#CD6116" stroke-linecap="round" stroke-linejoin="round"/>
<path d="M34.8628 35.0491L35.7678 42.6941L40.7578 35.2141L34.8628 35.0491Z" fill="#CD6116" stroke="#CD6116" stroke-linecap="round" stroke-linejoin="round"/>
<path d="M39.3427 26.6292L28.7627 27.0992L29.7377 32.5442L31.3027 29.2642L35.0677 30.9791L39.3427 26.6292Z" fill="#CD6116" stroke="#CD6116" stroke-linecap="round" stroke-linejoin="round"/>
<path d="M16.7081 30.9791L20.4731 29.2642L22.0181 32.5442L23.0181 27.0992L12.4131 26.6292L16.7081 30.9791Z" fill="#CD6116" stroke="#CD6116" stroke-linecap="round" stroke-linejoin="round"/>
<path d="M12.4131 26.6292L16.8581 35.2892L16.7081 30.9792L12.4131 26.6292Z" fill="#E4751F" stroke="#E4751F" stroke-linecap="round" stroke-linejoin="round"/>
<path d="M35.0683 30.9792L34.8833 35.2892L39.3433 26.6292L35.0683 30.9792Z" fill="#E4751F" stroke="#E4751F" stroke-linecap="round" stroke-linejoin="round"/>
<path d="M23.0181 27.0991L22.0181 32.5441L23.2631 38.9641L23.5431 30.5091L23.0181 27.0991Z" fill="#E4751F" stroke="#E4751F" stroke-linecap="round" stroke-linejoin="round"/>
<path d="M28.7629 27.0991L28.2529 30.4891L28.4779 38.9641L29.7379 32.5441L28.7629 27.0991Z" fill="#E4751F" stroke="#E4751F" stroke-linecap="round" stroke-linejoin="round"/>
<path d="M29.738 32.544L28.478 38.964L29.383 39.584L34.883 35.289L35.068 30.979L29.738 32.544Z" fill="#F6851B" stroke="#F6851B" stroke-linecap="round" stroke-linejoin="round"/>
<path d="M16.708 30.979L16.858 35.289L22.358 39.584L23.263 38.964L22.018 32.544L16.708 30.979Z" fill="#F6851B" stroke="#F6851B" stroke-linecap="round" stroke-linejoin="round"/>
<path d="M29.8332 45.4991L29.8932 43.7491L29.4182 43.3341H22.3182L21.8882 43.7491L21.9232 45.4991L15.9932 42.6941L18.0632 44.3891L22.2632 47.3091H29.4782L33.6932 44.3891L35.7682 42.6941L29.8332 45.4991Z" fill="#C0AD9E" stroke="#C0AD9E" stroke-linecap="round" stroke-linejoin="round"/>
<path d="M29.3832 39.5841L28.4782 38.9641H23.2632L22.3582 39.5841L21.8882 43.7491L22.3182 43.3341H29.4182L29.8932 43.7491L29.3832 39.5841Z" fill="#161616" stroke="#161616" stroke-linecap="round" stroke-linejoin="round"/>
<path d="M48.2883 17.6091L49.8933 9.92406L47.4983 2.78906L29.3833 16.2341L36.3483 22.1291L46.1983 25.0091L48.3833 22.4691L47.4433 21.7891L48.9483 20.4141L47.7833 19.5091L49.2883 18.3591L48.2883 17.6091Z" fill="#763D16" stroke="#763D16" stroke-linecap="round" stroke-linejoin="round"/>
<path d="M1.86816 9.92406L3.46816 17.6091L2.45316 18.3591L3.95816 19.5091L2.80816 20.4141L4.31816 21.7891L3.37316 22.4691L5.53816 25.0091L15.3882 22.1291L22.3582 16.2341L4.24316 2.78906L1.86816 9.92406Z" fill="#763D16" stroke="#763D16" stroke-linecap="round" stroke-linejoin="round"/>
<path d="M46.1983 25.0092L36.3483 22.1292L39.3433 26.6292L34.8833 35.2892L40.7583 35.2141H49.5133L46.1983 25.0092Z" fill="#F6851B" stroke="#F6851B" stroke-linecap="round" stroke-linejoin="round"/>
<path d="M15.3882 22.1292L5.53818 25.0092L2.26318 35.2141H11.0032L16.8582 35.2892L12.4132 26.6292L15.3882 22.1292Z" fill="#F6851B" stroke="#F6851B" stroke-linecap="round" stroke-linejoin="round"/>
<path d="M28.7632 27.0991L29.3832 16.2341L32.2432 8.49414H19.5332L22.3582 16.2341L23.0182 27.0991L23.2432 30.5291L23.2632 38.9641H28.4782L28.5182 30.5291L28.7632 27.0991Z" fill="#F6851B" stroke="#F6851B" stroke-linecap="round" stroke-linejoin="round"/>
</g>
<defs>
<clipPath id="clip0_1918_9087">
<rect width="50" height="50" fill="white" transform="translate(0.818359 0.0439453)"/>
</clipPath>
</defs>
</svg>
