<svg width="51" height="51" viewBox="0 0 51 51" fill="none" xmlns="http://www.w3.org/2000/svg">
<g clip-path="url(#clip0_1918_9289)">
<path d="M25.3959 0.543945C18.6809 0.543945 13.2409 5.98895 13.2409 12.7039V17.2489C10.8859 17.6689 8.50586 18.2539 8.50586 18.9989V42.8189C8.50586 42.8189 8.50586 43.4889 9.23086 43.7739C11.9159 44.8439 22.4659 48.5789 24.8859 49.4389C25.2059 49.5489 25.2709 49.5439 25.3809 49.5439C25.4959 49.5439 25.5559 49.5489 25.8759 49.4339C28.2909 48.5789 38.8759 44.8339 41.5459 43.7739C42.2409 43.4989 42.2609 42.8189 42.2609 42.8189V18.9989C42.2609 18.2539 39.9159 17.6739 37.5609 17.2489V12.7039C37.5559 5.98895 32.1109 0.543945 25.3959 0.543945ZM25.3959 6.35395C29.3459 6.35395 31.7459 8.75395 31.7459 12.7039V16.6639C27.2859 16.3389 23.4959 16.3389 19.0359 16.6639V12.7039C19.0409 8.75395 21.4459 6.35395 25.3959 6.35395ZM25.3809 22.5089C30.9059 22.5189 35.5509 22.9289 35.5509 23.7139C35.5509 23.7139 35.5509 38.3389 35.5509 38.5539C35.5509 38.7689 35.5159 38.8089 35.3109 38.8839C35.1059 38.9639 25.8659 42.2989 25.8659 42.2989C25.8659 42.2989 25.4859 42.4239 25.3809 42.4239C25.2609 42.4239 24.8809 42.2939 24.8809 42.2939C24.8809 42.2939 15.6459 38.9589 15.4359 38.8789C15.2259 38.7989 15.2009 38.7589 15.2009 38.5439C15.2009 38.3039 15.2009 23.7089 15.2009 23.7089C15.2059 22.9089 19.8559 22.4989 25.3809 22.5089Z" fill="black"/>
</g>
<defs>
<clipPath id="clip0_1918_9289">
<rect width="50" height="50" fill="white" transform="translate(0.380859 0.0439453)"/>
</clipPath>
</defs>
</svg>
